<svg width="201" height="202" viewBox="0 0 201 202" fill="none" xmlns="http://www.w3.org/2000/svg">
<path d="M97.968 18.2266C78.0278 18.2266 58.9042 26.1479 44.8043 40.2477C30.7044 54.3476 22.7832 73.4712 22.7832 93.4114C22.7832 96.3592 22.9563 99.2892 23.2969 102.188C23.3054 102.26 32.7769 102.26 32.7769 102.26C48.6428 102.389 53.7544 102.596 73.6947 102.596C93.6349 102.596 138.649 103.125 145.484 103.118C151.62 103.038 160.961 103.236 172.497 103.323C172.931 100.055 173.153 96.7448 173.153 93.4114C173.153 73.4712 165.232 54.3476 151.132 40.2477C137.032 26.1479 117.908 18.2266 97.968 18.2266ZM41.9553 58.8828C45.0097 71.3729 65.7513 82.754 76.8881 88.8627C81.3992 91.3344 84.3408 92.9415 83.8709 93.4114C83.119 94.1633 82.3484 94.8963 81.5965 95.6106C79.1467 97.9426 76.8629 100.116 75.5661 102.609C74.8554 102.525 85.7411 102.692 85.7411 102.692L95.3604 102.736C95.7004 102.774 105.278 102.824 105.278 102.824C105.278 102.824 106.442 102.91 112.325 102.91C126.763 102.824 132.136 103.071 134.99 103.038C131.561 93.9568 114.868 88.0804 102.667 84.0133C98.1748 82.5096 95.5715 84.7746 93.3629 86.6824C91.7465 88.0921 90.3368 89.3045 88.5699 88.7124C84.3878 87.3215 65.0747 69.9162 74.4728 65.2171C81.8033 61.5519 83.4198 63.6101 86.0042 66.9276C86.7373 67.858 87.5361 68.8824 88.5699 69.9162C94.2934 72.7732 94.7915 68.6756 95.3647 63.9672C95.7313 60.941 96.126 57.661 97.968 55.819C102.047 51.7402 109.857 48.3851 117.027 45.2931C123.719 42.4173 129.856 39.7765 131.867 37.0228C143.043 43.7437 151.97 53.6348 157.513 65.4398C163.056 77.2448 164.966 90.431 162.999 103.323C162.999 103.323 138.795 103.067 128.041 103.038C120.878 102.979 79.4121 102.643 79.4121 102.643C79.1984 102.606 69.9836 102.566 67.8109 102.549C61.7084 102.48 58.9072 102.692 49.7938 102.403L32.7769 102.26C32.4917 100.161 32.3072 98.0432 32.2258 95.9137C31.7277 82.8816 35.1143 69.9955 41.9553 58.8922V58.8828Z" fill="#7254F2"/>
<path d="M44.9099 127.445C36.5599 124.068 31.997 118.832 29.002 113.181C27.4925 110.332 23.9353 109.777 23.3621 112.949C21.1246 125.333 31.3954 148.754 47.2762 156.996C70.3331 168.962 163.528 144.111 176.221 132.313C188.915 120.515 162.035 105.488 143.817 112.309C128.881 117.901 79.2702 141.341 44.9099 127.445Z" fill="#7254F2"/>
<path d="M124.708 134.446C118.499 147.509 96.4116 150.571 81.4327 150.453C80.4086 150.445 80.3213 149.074 81.3237 148.864C94.3407 146.142 113.994 140.837 124.077 133.939C124.437 133.693 124.895 134.053 124.708 134.446Z" fill="#F9F7F7"/>
</svg>
